<svg version="1.1" xmlns="http://www.w3.org/2000/svg" xmlns:xlink="http://www.w3.org/1999/xlink" width="852" height="236" viewBox="0 0 852 236"><defs/><g transform="matrix(1,0,0,1,0,0)"><g><g><g><path fill="none" stroke="#d3d3d3" paint-order="fill stroke markers" d=" M 0 0 L 5 0 M 10 0 L 15 0 M 20 0 L 25 0 M 30 0 L 35 0 M 40 0 L 45 0 M 50 0 L 55 0 M 60 0 L 65 0 M 70 0 L 75 0 M 80 0 L 85 0 M 90 0 L 95 0 M 100 0 L 105 0 M 110 0 L 115 0 M 120 0 L 125 0 M 130 0 L 135 0 M 140 0 L 145 0 M 150 0 L 155 0 M 160 0 L 165 0 M 170 0 L 175 0 M 180 0 L 185 0 M 190 0 L 195 0 M 200 0 L 205 0 M 210 0 L 215 0 M 220 0 L 225 0 M 230 0 L 235 0 M 240 0 L 245 0 M 250 0 L 255 0 M 260 0 L 265 0 M 270 0 L 275 0 M 280 0 L 285 0 M 290 0 L 295 0 M 300 0 L 305 0 M 310 0 L 315 0 M 320 0 L 325 0 M 330 0 L 335 0 M 340 0 L 345 0 M 350 0 L 355 0 M 360 0 L 365 0 M 370 0 L 375 0 M 380 0 L 385 0 M 390 0 L 395 0 M 400 0 L 405 0 M 410 0 L 415 0 M 420 0 L 425 0 M 430 0 L 435 0 M 440 0 L 445 0 M 450 0 L 455 0 M 460 0 L 465 0 M 470 0 L 475 0 M 480 0 L 485 0 M 490 0 L 495 0 M 500 0 L 505 0 M 510 0 L 515 0 M 520 0 L 525 0 M 530 0 L 535 0 M 540 0 L 545 0 M 550 0 L 555 0 M 560 0 L 565 0 M 570 0 L 575 0 M 580 0 L 585 0 M 590 0 L 595 0 M 600 0 L 605 0 M 610 0 L 615 0 M 620 0 L 625 0 M 630 0 L 635 0 M 640 0 L 645 0 M 650 0 L 655 0 M 660 0 L 665 0 M 670 0 L 675 0 M 680 0 L 685 0 M 690 0 L 695 0 M 700 0 L 705 0 M 710 0 L 715 0 M 720 0 L 725 0 M 730 0 L 735 0 M 740 0 L 745 0 M 750 0 L 755 0 M 760 0 L 765 0 M 770 0 L 775 0 M 780 0 L 785 0 M 790 0 L 795 0 M 800 0 L 805 0 M 810 0 L 815 0 M 820 0 L 825 0 M 830 0 L 835 0 M 840 0 L 845 0 M 850 0 L 855 0 M 860 0 L 865 0 M 870 0 L 875 0 M 880 0 L 885 0 M 890 0 L 895 0 M 900 0 L 905 0 M 910 0 L 915 0 M 920 0 L 925 0 M 930 0 L 935 0 M 940 0 L 945 0 M 950 0 L 955 0 M 960 0 L 965 0 M 970 0 L 975 0 M 980 0 L 985 0 M 990 0 L 995 0 M 1000 0 L 1005 0 M 1010 0 L 1015 0 M 1020 0 L 1025 0 M 1030 0 L 1035 0 M 1040 0 L 1045 0 M 1050 0 L 1055 0 M 1060 0 L 1065 0 M 1070 0 L 1075 0 M 1080 0 L 1085 0 M 1090 0 L 1095 0 M 1100 0 L 1105 0 M 1110 0 L 1115 0 M 1120 0 L 1125 0 M 1130 0 L 1135 0 M 1140 0 L 1145 0 M 1150 0 L 1155 0 M 1160 0 L 1165 0 M 1170 0 L 1175 0 M 1180 0 L 1185 0 M 1190 0 L 1195 0 M 1200 0 L 1200.5 0" stroke-miterlimit="10" stroke-opacity="0.8" stroke-dasharray=""/></g><g><path fill="none" stroke="#d3d3d3" paint-order="fill stroke markers" d=" M 0 0 L 0 5 M 0 10 L 0 15 M 0 20 L 0 25 M 0 30 L 0 35 M 0 40 L 0 45 M 0 50 L 0 55 M 0 60 L 0 65 M 0 70 L 0 75 M 0 80 L 0 85 M 0 90 L 0 95 M 0 100 L 0 105 M 0 110 L 0 115 M 0 120 L 0 125 M 0 130 L 0 135 M 0 140 L 0 145 M 0 150 L 0 155 M 0 160 L 0 165 M 0 170 L 0 175 M 0 180 L 0 185 M 0 190 L 0 195 M 0 200 L 0 205 M 0 210 L 0 215 M 0 220 L 0 225 M 0 230 L 0 235 M 0 240 L 0 245 M 0 250 L 0 255 M 0 260 L 0 265 M 0 270 L 0 275 M 0 280 L 0 285 M 0 290 L 0 295 M 0 300 L 0 305 M 0 310 L 0 315 M 0 320 L 0 325 M 0 330 L 0 335 M 0 340 L 0 345 M 0 350 L 0 355 M 0 360 L 0 365 M 0 370 L 0 375 M 0 380 L 0 385 M 0 390 L 0 395 M 0 400 L 0 405 M 0 410 L 0 415 M 0 420 L 0 425 M 0 430 L 0 435 M 0 440 L 0 445 M 0 450 L 0 455 M 0 460 L 0 465 M 0 470 L 0 475 M 0 480 L 0 485 M 0 490 L 0 495 M 0 500 L 0 505 M 0 510 L 0 515 M 0 520 L 0 525 M 0 530 L 0 535 M 0 540 L 0 545 M 0 550 L 0 555 M 0 560 L 0 565 M 0 570 L 0 575 M 0 580 L 0 585 M 0 590 L 0 595 M 0 600 L 0 605 M 0 610 L 0 615 M 0 620 L 0 625 M 0 630 L 0 635 M 0 640 L 0 645 M 0 650 L 0 655 M 0 660 L 0 665 M 0 670 L 0 675 M 0 680 L 0 685 M 0 690 L 0 695 M 0 700 L 0 705 M 0 710 L 0 715 M 0 720 L 0 725 M 0 730 L 0 735 M 0 740 L 0 745 M 0 750 L 0 755 M 0 760 L 0 765 M 0 770 L 0 775 M 0 780 L 0 785 M 0 790 L 0 795 M 0 800 L 0 800.5" stroke-miterlimit="10" stroke-opacity="0.8" stroke-dasharray=""/></g></g><g id="_CDF00F90-E145-45B0-8582-5D05CE8DD448" bpmn2nodeid="_CDF00F90-E145-45B0-8582-5D05CE8DD448" transform="matrix(1,0,0,1,746,130)"><g><path fill="none" stroke="none"/></g><g transform="matrix(0.125,0,0,0.125,0,0)"><g transform="matrix(1,0,0,1,0,0)"><path fill="#fce7e7" stroke="none" id="_CDF00F90-E145-45B0-8582-5D05CE8DD448?shapeType=BACKGROUND" paint-order="stroke fill markers" d=" M 0 0 M 444 224 C 444 263.9 434.2 300.8 414.4 334.5 C 394.7 368.2 368 394.9 334.4 414.5 C 300.79999999999995 434.1 263.9 444 224 444 C 184.10000000000002 444 147.2 434.2 113.5 414.4 C 79.8 394.7 53.1 368 33.5 334.4 C 13.899999999999999 300.79999999999995 4 263.9 4 224 C 4 184.10000000000002 13.8 147.2 33.6 113.5 C 53.400000000000006 79.80000000000001 80.1 53.1 113.6 33.5 C 147.1 13.899999999999999 184.1 4 224 4 C 263.9 4 300.8 13.8 334.5 33.6 C 368.2 53.400000000000006 394.9 80.1 414.5 113.6 C 434.1 147.1 444 184.1 444 224 Z"/></g><g><g transform="matrix(1,0,0,1,0,0)"><g transform="matrix(1,0,0,1,0,0)"><path fill="#a30000" stroke="none" id="_CDF00F90-E145-45B0-8582-5D05CE8DD448?shapeType=BORDER&amp;renderType=FILL" paint-order="stroke fill markers" d=" M 0 0 M 224 0 C 100.3 0 0 100.3 0 224 C 0 347.7 100.3 448 224 448 C 347.7 448 448 347.7 448 224 C 448 100.30000000000001 347.7 0 224 0 Z M 0 0 M 224 400 C 126.8 400 48 321.2 48 224 C 48 126.80000000000001 126.8 48 224 48 C 321.2 48 400 126.8 400 224 C 400 321.2 321.2 400 224 400 Z"/></g></g></g></g><g transform="matrix(1,0,0,1,28,61)"/></g><g id="_795B6C84-7D37-4C04-A7BC-453DE7CEEFE7" bpmn2nodeid="_795B6C84-7D37-4C04-A7BC-453DE7CEEFE7" transform="matrix(1,0,0,1,337,130)"><g><path fill="none" stroke="none"/></g><g transform="matrix(0.125,0,0,0.125,0,0)"><g transform="matrix(1,0,0,1,0,0)"><path fill="#e8fae6" stroke="none" id="_795B6C84-7D37-4C04-A7BC-453DE7CEEFE7?shapeType=BACKGROUND" paint-order="stroke fill markers" d=" M 0 0 M 444 224 C 444 263.9 434.2 300.8 414.4 334.5 C 394.7 368.2 368 394.9 334.4 414.5 C 300.79999999999995 434.1 263.9 444 224 444 C 184.10000000000002 444 147.2 434.2 113.5 414.4 C 79.8 394.7 53.1 368 33.5 334.4 C 13.899999999999999 300.79999999999995 4 263.9 4 224 C 4 184.10000000000002 13.8 147.2 33.6 113.5 C 53.400000000000006 79.80000000000001 80.1 53.1 113.6 33.5 C 147.1 13.899999999999999 184.1 4 224 4 C 263.9 4 300.8 13.8 334.5 33.6 C 368.2 53.400000000000006 394.9 80.1 414.5 113.6 C 434.1 147.1 444 184.1 444 224 Z"/></g><g><g transform="matrix(1,0,0,1,0,0)"><g transform="matrix(1,0,0,1,0,0)"><path fill="#4aa241" stroke="none" id="_795B6C84-7D37-4C04-A7BC-453DE7CEEFE7?shapeType=BORDER&amp;renderType=FILL" paint-order="stroke fill markers" d=" M 0 0 M 224 0 C 100.3 0 0 100.3 0 224 C 0 347.7 100.3 448 224 448 C 347.7 448 448 347.7 448 224 C 448 100.30000000000001 347.7 0 224 0 Z M 0 0 M 224 432 C 109.1 432 16 338.9 16 224 C 16 109.10000000000002 109.1 16 224 16 C 338.9 16 432 109.1 432 224 C 432 338.9 338.9 432 224 432 Z"/></g></g></g></g><g transform="matrix(1,0,0,1,28,61)"/></g><g id="_A7F253AD-4E39-4AC4-A74B-F52B61C42EC0" bpmn2nodeid="_A7F253AD-4E39-4AC4-A74B-F52B61C42EC0"><g><path fill="none" stroke="#000000" paint-order="fill stroke markers" d=" M 393 158 L 731 158" stroke-miterlimit="10" stroke-dasharray=""/></g><g transform="matrix(1,0,0,1,393,158)"/><g transform="matrix(6.123233995736766e-17,1,-1,6.123233995736766e-17,746,153)"><path fill="#000000" stroke="#000000" paint-order="fill stroke markers" d=" M 10 15 L 0 15 L 5 0 Z" stroke-miterlimit="10" stroke-dasharray=""/></g><g transform="matrix(1,0,0,1,469.5,148)"/></g><g transform="matrix(1,0,0,1,746,130)"/><g transform="matrix(1,0,0,1,337,130)"/></g></g></svg>